<svg width="100" height="161" viewBox="0 0 100 161" fill="none" xmlns="http://www.w3.org/2000/svg">
<path d="M11.188 4.67216C10.5606 7.32392 7.54878 21.0878 4.78796 35.3569C-1.23565 65.0314 -1.48663 74.8808 3.53304 85.109C7.67427 93.822 16.9607 102.535 29.5098 109.48C43.6904 117.435 44.9453 119.456 44.9453 135.366C44.9453 151.403 43.4394 153.55 29.8863 155.823C23.2352 156.959 20.4744 157.969 20.4744 159.232C20.4744 160.747 25.2431 161 49.965 161C75.1888 161 79.4556 160.747 79.4556 159.106C79.4556 157.843 77.4477 156.959 72.5535 156.328C57.4945 154.181 54.9847 151.024 54.9847 134.861C54.9847 120.087 56.7415 117.183 70.1692 109.859C83.8478 102.409 93.8871 92.4329 97.6519 82.5835C100.036 76.1435 100.287 73.4918 99.7852 63.1373C99.1578 52.4039 90.2478 4.54588 88.24 1.26275C87.738 0.505098 74.0594 0 49.965 0C12.443 0 12.443 0 11.188 4.67216ZM84.2242 5.9349C85.1027 7.32392 92.3812 43.5647 94.5146 56.8235C95.5185 62.7584 96.0205 69.8298 95.5185 72.6078C92.1302 94.9584 65.024 113.521 42.812 108.849C20.3489 104.176 4.78796 87.382 4.78796 68.1882C4.91345 62.1271 11.188 26.5176 15.9567 5.30353C16.2077 4.54588 83.7223 5.17725 84.2242 5.9349Z" fill="#5B1E34"/>
<path d="M65.526 18.9412C57.62 22.2243 56.7416 31.4424 63.2671 42.4282C72.7687 58.8814 68.8276 56.8235 76.1928 44.0698C82.3419 32.8314 82.9693 26.0126 78.4516 21.7192C75.0633 18.5624 69.2907 17.2996 65.526 18.9412ZM70.1299 23.371C76.9102 23.371 77.9221 24.6694 76.6234 29.8629C76.1364 31.8105 71.0899 37.004 70.1299 37.004C69.1698 37.004 64.1234 31.8105 63.6364 29.8629C62.3377 24.6694 63.3495 23.371 70.1299 23.371Z" fill="#5B1E34"/>
<path d="M21.3529 42.9333C10.3096 54.1718 10.0586 54.5506 9.18017 61.622C7.2978 78.0377 14.4508 90.9177 30.8902 100.515C34.906 102.787 35.0315 102.787 39.5492 100.388C46.2002 96.8526 52.4748 91.0439 52.4748 88.5184C52.4748 85.8667 49.714 83.2149 44.3179 80.4369C39.0472 77.7851 33.6511 72.4816 33.6511 70.0824C33.6511 67.5569 39.5492 65.0314 49.965 63.1373C62.7652 60.8643 67.5338 59.349 67.5338 57.5812C67.5338 56.6973 64.6475 53.1616 61.2593 50.0047C55.9886 45.08 54.4827 44.1961 52.9768 45.5851C51.4709 46.8479 49.8395 45.7114 43.1884 39.2714C38.7962 35.1043 34.5295 31.5686 33.9021 31.5686C33.2746 31.5686 27.6275 36.7459 21.3529 42.9333ZM41.808 44.3224C50.216 51.52 51.8474 53.7929 49.965 54.9294C49.212 55.3082 45.6983 53.1616 41.9335 50.0047C38.2943 46.8479 34.5295 44.1961 33.7766 44.1961C32.8981 44.1961 30.3883 45.5851 28.1294 47.353C24.1137 50.3835 21.1019 51.3937 21.1019 49.6259C21.1019 48.742 32.5216 38.0086 33.6511 38.0086C34.0275 37.8824 37.6668 40.7867 41.808 44.3224Z" fill="#5B1E34"/>
<path d="M73.9339 57.0761C70.5456 62.7584 67.6593 64.2737 55.7376 66.7992C41.6825 69.8298 41.808 71.5976 56.3651 77.6588C66.4044 81.8259 68.0358 82.9623 69.6672 86.7506C71.0476 90.16 71.1731 92.0541 70.1692 95.0847C68.4123 99.8831 68.4123 99.7569 70.6711 99.7569C71.6751 99.7569 75.8163 96.4737 79.832 92.4329C87.738 84.7302 91.5028 76.7749 91.2518 68.3145C91.2518 64.5263 90.2478 62.8847 84.9772 58.3388C81.5889 55.4345 78.2006 53.0353 77.5732 53.0353C77.0712 53.0353 75.4398 54.9294 73.9339 57.0761Z" fill="#5B1E34"/>
</svg>
